<?xml version="1.0" encoding="utf-8"?>
<!-- Generator: Adobe Illustrator 18.1.1, SVG Export Plug-In . SVG Version: 6.00 Build 0)  -->
<!DOCTYPE svg PUBLIC "-//W3C//DTD SVG 1.1//EN" "http://www.w3.org/Graphics/SVG/1.1/DTD/svg11.dtd">
<svg version="1.1" id="Layer_1" xmlns="http://www.w3.org/2000/svg" xmlns:xlink="http://www.w3.org/1999/xlink" x="0px" y="0px"
	 viewBox="0 0 194.6 173.8" enable-background="new 0 0 194.6 173.8" xml:space="preserve">
<g>
	<path fill="#343638" d="M158.4,153.9h-14v-11.5h14c1.2,0,1.8-0.8,2.1-1.2c0.3-0.4,0.6-1.4,0-2.4L99.4,32.6c-0.6-1-1.6-1.2-2.1-1.2
		c-0.5,0-1.5,0.2-2.1,1.2L83,53.9c29.9,21.9,47.6,56.8,47.6,94.3v5.7H92.2v-5.7c0-23.5-10.7-45.4-29-59.9l-7.8,13.6
		c12.9,11.6,20.5,28.6,20.5,46.3v5.7H36.1c-5,0-9.5-2.6-12-6.9c-2.5-4.3-2.5-9.5,0-13.9l8.9-15.5l9.9,5.7l-8.9,15.5
		c-0.6,1-0.3,2,0,2.4c0.3,0.4,0.9,1.2,2.1,1.2h28c-1.6-13.7-8.6-26.4-19.6-34.6l-4-3.1l19-33l5.1,3.4c22.8,15.3,37.1,40.1,38.9,67.3
		H119c-1.8-33.2-19-63.6-46.8-82l-4.5-3l17.6-30.6c2.5-4.3,7-6.9,12-6.9c5,0,9.5,2.6,12,6.9l61.1,106.2c2.5,4.3,2.5,9.5,0,13.9
		C167.9,151.3,163.4,153.9,158.4,153.9z"/>
</g>
</svg>
